<?xml version="1.0" encoding="UTF-8"?>
<svg width="328px" height="133px" viewBox="0 0 328 133" version="1.1" xmlns="http://www.w3.org/2000/svg" xmlns:xlink="http://www.w3.org/1999/xlink">
    <title>轮播图 资格证</title>
    <defs>
        <linearGradient x1="8.45916675%" y1="43.8393049%" x2="90.5998099%" y2="59.9499305%" id="linearGradient-1">
            <stop stop-color="#44B9F5" offset="0%"></stop>
            <stop stop-color="#0074E4" offset="100%"></stop>
        </linearGradient>
        <rect id="path-2" x="0" y="0" width="328" height="133" rx="9"></rect>
        <linearGradient x1="50%" y1="0%" x2="50%" y2="100%" id="linearGradient-4">
            <stop stop-color="#FAD961" offset="0%"></stop>
            <stop stop-color="#F76B1C" offset="100%"></stop>
        </linearGradient>
        <path d="M27.983564,38.0010844 C28.5758447,39.0962846 29.3841085,40.0387363 30.4061774,40.7642371 C31.4848408,41.5298186 32.7060478,41.9859378 33.9989709,42.1559651 L29.9619275,48 L28.6681941,43.4273587 L24,43.7682661 L27.983564,38.0010844 Z M42.015968,37.9995017 L46,43.7675964 L41.318117,43.4359625 L40.0373722,48 L36.0001142,42.1550058 C37.293093,41.9849248 38.5143523,41.5287434 39.5930704,40.7630922 C40.6152592,40.0374764 41.4236178,39.0948753 42.015968,37.9995017 Z M35,26 C38.8659932,26 42,29.1340068 42,33 C42,36.8659932 38.8659932,40 35,40 C31.1340068,40 28,36.8659932 28,33 C28,29.1340068 31.1340068,26 35,26 Z M34.4361894,30.0585176 L34.3799062,30.1465142 L33.987674,30.8717267 C33.8641846,31.1000508 33.6577091,31.2698646 33.413662,31.3481725 L33.2887178,31.3795482 L32.4777932,31.5284802 C32.3429779,31.5532399 32.2183046,31.6167642 32.1190311,31.7112786 C31.8652424,31.9529009 31.830987,32.3385121 32.0223879,32.618787 L32.0945542,32.7079686 L32.6630659,33.3051066 C32.8420547,33.493108 32.9397527,33.7419533 32.9388133,33.9982543 L32.9300434,34.126779 L32.8210967,34.9440366 C32.8029844,35.0799047 32.8248734,35.2181061 32.8840848,35.3417274 C33.0369852,35.6609525 33.3988246,35.8125482 33.7271724,35.7111088 L33.8244295,35.6730005 L34.5680213,35.3168395 C34.8021318,35.2047067 35.0689881,35.1886878 35.3124545,35.2687826 L35.4319787,35.3168395 L36.1755705,35.6730005 C36.2991918,35.7322119 36.4373932,35.7541008 36.5732613,35.7359885 C36.927035,35.6888278 37.1843618,35.3869613 37.1851647,35.0397096 L37.1789033,34.9440366 L37.0699566,34.126779 C37.0356561,33.8694757 37.1028842,33.6107301 37.2542942,33.4039305 L37.3369341,33.3051066 L37.9054458,32.7079686 C37.9999602,32.6086951 38.0634844,32.4840218 38.0882442,32.3492065 C38.1527138,31.9981743 37.94514,31.6601601 37.6151321,31.5520898 L37.5222068,31.5284802 L36.7112822,31.3795482 C36.4559728,31.3326588 36.2306658,31.1887642 36.0807759,30.9808601 L36.012326,30.8717267 L35.6200938,30.1465142 C35.5548856,30.0259484 35.4559443,29.9270071 35.3353786,29.861799 C35.0240437,29.6934131 34.6422038,29.7834535 34.4361894,30.0585176 Z" id="path-5"></path>
        <filter x="-31.8%" y="-22.7%" width="163.6%" height="163.6%" filterUnits="objectBoundingBox" id="filter-6">
            <feOffset dx="0" dy="2" in="SourceAlpha" result="shadowOffsetOuter1"></feOffset>
            <feGaussianBlur stdDeviation="2" in="shadowOffsetOuter1" result="shadowBlurOuter1"></feGaussianBlur>
            <feColorMatrix values="0 0 0 0 0   0 0 0 0 0   0 0 0 0 0  0 0 0 0 0" type="matrix" in="shadowBlurOuter1"></feColorMatrix>
        </filter>
    </defs>
    <g id="页面-1" stroke="none" stroke-width="1" fill="none" fill-rule="evenodd">
        <g id="首页" transform="translate(-18.000000, -250.000000)">
            <g id="编组-8" transform="translate(18.000000, 250.000000)">
                <g id="轮播图-资格证">
                    <g id="编组-+-编组备份-2-+-编组备份-+-编组备份-3蒙版">
                        <mask id="mask-3" fill="white">
                            <use xlink:href="#path-2"></use>
                        </mask>
                        <use id="蒙版" fill="url(#linearGradient-1)" xlink:href="#path-2"></use>
                        <g id="编组" opacity="0.482398624" mask="url(#mask-3)" stroke="#FFFFFF" stroke-dasharray="5">
                            <g transform="translate(245.000000, 56.000000)" id="椭圆形" opacity="0.280296689">
                                <path d="M78,156 C121.07821,156 156,121.07821 156,78 C156,34.9217895 121.07821,0 78,0 C34.9217895,0 0,34.9217895 0,78 C0,121.07821 34.9217895,156 78,156 Z"></path>
                                <path d="M78,137 C110.5848,137 137,110.5848 137,78 C137,45.4151998 110.5848,19 78,19 C45.4151998,19 19,45.4151998 19,78 C19,110.5848 45.4151998,137 78,137 Z"></path>
                                <path d="M78,121 C101.748244,121 121,101.748244 121,78 C121,54.2517558 101.748244,35 78,35 C54.2517558,35 35,54.2517558 35,78 C35,101.748244 54.2517558,121 78,121 Z"></path>
                                <path d="M78,107 C94.0162577,107 107,94.0162577 107,78 C107,61.9837423 94.0162577,49 78,49 C61.9837423,49 49,61.9837423 49,78 C49,94.0162577 61.9837423,107 78,107 Z"></path>
                                <path d="M78,94 C86.836556,94 94,86.836556 94,78 C94,69.163444 86.836556,62 78,62 C69.163444,62 62,69.163444 62,78 C62,86.836556 69.163444,94 78,94 Z"></path>
                            </g>
                        </g>
                        <g id="编组备份-2" opacity="0.184198289" mask="url(#mask-3)" stroke="#FFFFFF" stroke-dasharray="5">
                            <g transform="translate(-150.000000, -176.000000)" id="椭圆形" opacity="0.280296689">
                                <path d="M140,280 C217.319865,280 280,217.319865 280,140 C280,62.680135 217.319865,0 140,0 C62.680135,0 0,62.680135 0,140 C0,217.319865 62.680135,280 140,280 Z"></path>
                                <path d="M140.5,261 C207.050312,261 261,207.050312 261,140.5 C261,73.9496876 207.050312,20 140.5,20 C73.9496876,20 20,73.9496876 20,140.5 C20,207.050312 73.9496876,261 140.5,261 Z"></path>
                                <path d="M140,246 C198.542183,246 246,198.542183 246,140 C246,81.4578165 198.542183,34 140,34 C81.4578165,34 34,81.4578165 34,140 C34,198.542183 81.4578165,246 140,246 Z"></path>
                                <path d="M140.5,232 C191.034055,232 232,191.034055 232,140.5 C232,89.9659454 191.034055,49 140.5,49 C89.9659454,49 49,89.9659454 49,140.5 C49,191.034055 89.9659454,232 140.5,232 Z"></path>
                                <path d="M140,217 C182.525926,217 217,182.525926 217,140 C217,97.4740743 182.525926,63 140,63 C97.4740743,63 63,97.4740743 63,140 C63,182.525926 97.4740743,217 140,217 Z"></path>
                                <path d="M140.5,207 C177.226936,207 207,177.226936 207,140.5 C207,103.773064 177.226936,74 140.5,74 C103.773064,74 74,103.773064 74,140.5 C74,177.226936 103.773064,207 140.5,207 Z"></path>
                                <path d="M140,192 C168.718807,192 192,168.718807 192,140 C192,111.281193 168.718807,88 140,88 C111.281193,88 88,111.281193 88,140 C88,168.718807 111.281193,192 140,192 Z"></path>
                                <path d="M140.5,182 C163.419817,182 182,163.419817 182,140.5 C182,117.580183 163.419817,99 140.5,99 C117.580183,99 99,117.580183 99,140.5 C99,163.419817 117.580183,182 140.5,182 Z"></path>
                                <path d="M140.5,169 C156.240115,169 169,156.240115 169,140.5 C169,124.759885 156.240115,112 140.5,112 C124.759885,112 112,124.759885 112,140.5 C112,156.240115 124.759885,169 140.5,169 Z"></path>
                                <path d="M140,158 C149.941125,158 158,149.941125 158,140 C158,130.058875 149.941125,122 140,122 C130.058875,122 122,130.058875 122,140 C122,149.941125 130.058875,158 140,158 Z"></path>
                            </g>
                        </g>
                        <g id="编组备份" opacity="0.397391183" mask="url(#mask-3)" stroke="#FFFFFF" stroke-dasharray="2">
                            <g transform="translate(126.000000, -170.000000)" id="椭圆形" opacity="0.280296689">
                                <path d="M116,232 C180.065031,232 232,180.065031 232,116 C232,51.934969 180.065031,0 116,0 C51.934969,0 0,51.934969 0,116 C0,180.065031 51.934969,232 116,232 Z"></path>
                                <path d="M116.5,216 C171.452333,216 216,171.452333 216,116.5 C216,61.5476674 171.452333,17 116.5,17 C61.5476674,17 17,61.5476674 17,116.5 C17,171.452333 61.5476674,216 116.5,216 Z"></path>
                                <path d="M116.5,204 C164.824916,204 204,164.824916 204,116.5 C204,68.1750844 164.824916,29 116.5,29 C68.1750844,29 29,68.1750844 29,116.5 C29,164.824916 68.1750844,204 116.5,204 Z"></path>
                                <path d="M116,192 C157.973641,192 192,157.973641 192,116 C192,74.026359 157.973641,40 116,40 C74.026359,40 40,74.026359 40,116 C40,157.973641 74.026359,192 116,192 Z"></path>
                                <path d="M116,180 C151.346224,180 180,151.346224 180,116 C180,80.653776 151.346224,52 116,52 C80.653776,52 52,80.653776 52,116 C52,151.346224 80.653776,180 116,180 Z"></path>
                                <path d="M116,171 C146.375661,171 171,146.375661 171,116 C171,85.6243388 146.375661,61 116,61 C85.6243388,61 61,85.6243388 61,116 C61,146.375661 85.6243388,171 116,171 Z"></path>
                                <path d="M116,159 C139.748244,159 159,139.748244 159,116 C159,92.2517558 139.748244,73 116,73 C92.2517558,73 73,92.2517558 73,116 C73,139.748244 92.2517558,159 116,159 Z"></path>
                                <path d="M116,150 C134.777681,150 150,134.777681 150,116 C150,97.2223185 134.777681,82 116,82 C97.2223185,82 82,97.2223185 82,116 C82,134.777681 97.2223185,150 116,150 Z"></path>
                                <path d="M116,140 C129.254834,140 140,129.254834 140,116 C140,102.745166 129.254834,92 116,92 C102.745166,92 92,102.745166 92,116 C92,129.254834 102.745166,140 116,140 Z"></path>
                                <path d="M116,131 C124.284271,131 131,124.284271 131,116 C131,107.715729 124.284271,101 116,101 C107.715729,101 101,107.715729 101,116 C101,124.284271 107.715729,131 116,131 Z"></path>
                            </g>
                        </g>
                        <g id="编组备份-3" opacity="0.274855841" mask="url(#mask-3)" stroke="#FFFFFF" stroke-dasharray="2">
                            <g transform="translate(30.000000, 44.000000)" id="椭圆形" opacity="0.280296689">
                                <path d="M116,232 C180.065031,232 232,180.065031 232,116 C232,51.934969 180.065031,0 116,0 C51.934969,0 0,51.934969 0,116 C0,180.065031 51.934969,232 116,232 Z"></path>
                                <path d="M116.5,216 C171.452333,216 216,171.452333 216,116.5 C216,61.5476674 171.452333,17 116.5,17 C61.5476674,17 17,61.5476674 17,116.5 C17,171.452333 61.5476674,216 116.5,216 Z"></path>
                                <path d="M116.5,204 C164.824916,204 204,164.824916 204,116.5 C204,68.1750844 164.824916,29 116.5,29 C68.1750844,29 29,68.1750844 29,116.5 C29,164.824916 68.1750844,204 116.5,204 Z"></path>
                                <path d="M116,192 C157.973641,192 192,157.973641 192,116 C192,74.026359 157.973641,40 116,40 C74.026359,40 40,74.026359 40,116 C40,157.973641 74.026359,192 116,192 Z"></path>
                                <path d="M116,180 C151.346224,180 180,151.346224 180,116 C180,80.653776 151.346224,52 116,52 C80.653776,52 52,80.653776 52,116 C52,151.346224 80.653776,180 116,180 Z"></path>
                                <path d="M116,171 C146.375661,171 171,146.375661 171,116 C171,85.6243388 146.375661,61 116,61 C85.6243388,61 61,85.6243388 61,116 C61,146.375661 85.6243388,171 116,171 Z"></path>
                                <path d="M116,159 C139.748244,159 159,139.748244 159,116 C159,92.2517558 139.748244,73 116,73 C92.2517558,73 73,92.2517558 73,116 C73,139.748244 92.2517558,159 116,159 Z"></path>
                                <path d="M116,150 C134.777681,150 150,134.777681 150,116 C150,97.2223185 134.777681,82 116,82 C97.2223185,82 82,97.2223185 82,116 C82,134.777681 97.2223185,150 116,150 Z"></path>
                                <path d="M116,140 C129.254834,140 140,129.254834 140,116 C140,102.745166 129.254834,92 116,92 C102.745166,92 92,102.745166 92,116 C92,129.254834 102.745166,140 116,140 Z"></path>
                                <path d="M116,131 C124.284271,131 131,124.284271 131,116 C131,107.715729 124.284271,101 116,101 C107.715729,101 101,107.715729 101,116 C101,124.284271 107.715729,131 116,131 Z"></path>
                            </g>
                        </g>
                        <circle id="椭圆形" fill="#FFFFFF" mask="url(#mask-3)" cx="35" cy="37" r="15"></circle>
                        <g id="形状结合" mask="url(#mask-3)">
                            <use fill="black" fill-opacity="1" filter="url(#filter-6)" xlink:href="#path-5"></use>
                            <use fill="url(#linearGradient-4)" fill-rule="evenodd" xlink:href="#path-5"></use>
                        </g>
                    </g>
                </g>
            </g>
        </g>
    </g>
</svg>