<?xml version="1.0" encoding="UTF-8"?>
<svg width="150px" height="66px" viewBox="0 0 150 66" version="1.1" xmlns="http://www.w3.org/2000/svg" xmlns:xlink="http://www.w3.org/1999/xlink">
    <title>调查立案</title>
    <defs>
        <linearGradient x1="0%" y1="40.32%" x2="165.08113%" y2="73.9467496%" id="linearGradient-1">
            <stop stop-color="#FFE790" offset="0%"></stop>
            <stop stop-color="#F7B860" offset="100%"></stop>
        </linearGradient>
        <rect id="path-2" x="0" y="0" width="150" height="66" rx="8"></rect>
    </defs>
    <g id="调查立案" stroke="none" stroke-width="1" fill="none" fill-rule="evenodd">
        <g id="椭圆形-+-椭圆形备份蒙版">
            <mask id="mask-3" fill="white">
                <use xlink:href="#path-2"></use>
            </mask>
            <use id="蒙版" fill="url(#linearGradient-1)" xlink:href="#path-2"></use>
            <ellipse id="椭圆形" fill="#FFFFFF" opacity="0.22093564" mask="url(#mask-3)" cx="124" cy="60" rx="28" ry="26"></ellipse>
            <ellipse id="椭圆形备份" fill="#FFFFFF" opacity="0.129092262" mask="url(#mask-3)" cx="149" cy="45" rx="28" ry="26"></ellipse>
            <g id="lianshenhe_sel" opacity="0.556849888" mask="url(#mask-3)" fill-rule="nonzero">
                <g transform="translate(10.000000, 9.000000)">
                    <path d="M5.37500001,0 L37.625,0 C40.58125,0 43,2.36842104 43,5.26315791 L43,44.7368421 C43,47.631579 40.58125,50 37.625,50 L5.37500001,50 C2.41874999,50 0,47.631579 0,44.7368421 L0,5.26315791 C0,2.36842104 2.41875004,0 5.37500001,0 Z" id="路径" fill="#D8B464"></path>
                    <path d="M27.6428571,9.57142858 L11.3571428,9.57142858 C10.5428571,9.57142858 10,9.05714288 10,8.28571431 C10,7.51428574 10.5428571,7 11.3571428,7 L27.6428571,7 C28.4571428,7 29,7.5142857 29,8.28571431 C29,9.05714293 28.4571429,9.57142858 27.6428571,9.57142858 Z M23.5714286,16 L11.3571428,16 C10.5428571,16 10,15.4857143 10,14.7142857 C10,13.9428572 10.5428571,13.4285714 11.3571428,13.4285714 L23.5714286,13.4285714 C24.3857143,13.4285714 24.9285714,13.9428571 24.9285714,14.7142857 C24.9285714,15.4857144 24.3857143,16 23.5714286,16 Z" id="形状" fill="#FFFFFF"></path>
                    <path d="M37.0414777,25 C40.2915808,25 43,27.6666667 43,30.8666667 L43,31.6666667 C43,32.2 42.7291581,32.7333333 42.7291581,33 C42.4583162,33.5333333 42.4583162,34.0666667 42.1874742,34.3333333 C41.6457904,35.4 41.6457904,36.4666666 41.6457904,37.5333333 L41.6457904,41 L32.4371651,41 L32.4371651,38.3333333 C32.4371651,37.2666666 32.1663232,36.4666666 31.8954812,35.6666667 C31.8954812,34.8666667 31.6246393,34.0666667 31.3537974,33 C31.3537974,32.7333333 31.0829555,32.2 31.0829555,31.9333333 C30.5412716,28.7333334 32.708007,25.8 35.95811,25 L37.0414777,25 Z" id="路径" fill="#EFF6FF"></path>
                    <path d="M29.625,38 L45.375,38 C46.95,38 48,39.0666667 48,40.6666667 L48,43.3333333 C48,44.9333333 46.95,46 45.375,46 L29.625,46 C28.05,46 27,44.9333333 27,43.3333333 L27,40.6666667 C27,39.0666667 28.05,38 29.625,38 Z" id="路径" fill="#EFF6FF"></path>
                    <polygon id="路径" fill="#FFFFFF" points="27 42 48 42 48 45 27 45"></polygon>
                    <path d="M15.8865979,28 C15.6391752,28 15.1443299,28 14.8969072,27.7254902 L11.185567,23.6078432 C10.9381443,23.0588236 10.9381443,21.9607843 11.185567,21.4117647 C11.4329897,20.8627451 12.4226804,20.8627451 12.9175258,21.4117647 L16.628866,25.5294118 C17.1237113,26.0784314 17.1237113,26.9019608 16.628866,27.4509804 C16.628866,28 16.1340207,28 15.8865979,28 L15.8865979,28 Z" id="路径" fill="#FFFFFF"></path>
                    <path d="M15.5277777,28 C15.2499999,28 14.6944444,28 14.4166667,27.7403111 C13.8611111,27.2209333 13.8611111,26.4418667 14.4166667,25.9224889 L21.3611111,19.4302666 C21.9166667,18.9108889 23.0277778,18.9108889 23.5833333,19.1705778 C24.1388889,19.4302667 24.1388889,20.4690222 23.5833333,20.9884 L16.6388889,27.7403111 C16.3611111,28 15.8055555,28 15.5277777,28 L15.5277777,28 Z" id="路径" fill="#FFFFFF"></path>
                </g>
            </g>
        </g>
    </g>
</svg>