<?xml version="1.0" encoding="UTF-8"?>
<svg width="14px" height="14px" viewBox="0 0 14 14" version="1.1" xmlns="http://www.w3.org/2000/svg" xmlns:xlink="http://www.w3.org/1999/xlink">
    <title>下载</title>
    <g id="下载" stroke="none" stroke-width="1" fill="none" fill-rule="evenodd">
        <g id="xiazai" fill-rule="nonzero">
            <path d="M12.6,7 C12.6,6.61340068 12.9134007,6.3 13.3,6.3 C13.6865993,6.3 14,6.61340068 14,7 L14,12.04 C14,12.5598421 13.7935773,13.0584095 13.4259934,13.4259934 C13.0584095,13.7935773 12.5598421,14 12.04,14 L1.96000001,14 C1.44015791,14 0.94159052,13.7935773 0.574006639,13.4259934 C0.206422757,13.0584095 0,12.5598421 0,12.04 L0,7 C0,6.61340068 0.313400687,6.3 0.700000012,6.3 C1.08659934,6.3 1.40000001,6.61340068 1.40000001,7 L1.40000001,12.04 C1.40000001,12.1885212 1.45899984,12.3309594 1.56402021,12.4359798 C1.66904059,12.5410002 1.81147878,12.6 1.96000001,12.6 L12.04,12.6 C12.3492795,12.6 12.6,12.3492795 12.6,12.04 L12.6,7 Z" id="形状" fill="#000000"></path>
            <path d="M7.70000001,8.2980625 L8.75459376,6.923875 C8.99017773,6.61713261 9.4298201,6.55944731 9.7365625,6.79503126 C10.0433049,7.03061522 10.1009902,7.4702576 9.86540626,7.777 L7.55540626,10.787 C7.42292906,10.9596971 7.21765684,11.0609438 7.00000001,11.0609438 C6.78234319,11.0609438 6.57707097,10.9596971 6.44459376,10.787 L4.13437501,7.776125 C3.89879105,7.469443 3.95642739,7.02984959 4.26310939,6.79426563 C4.56979138,6.55868166 5.0093848,6.616318 5.24496876,6.923 L6.30000001,8.2980625 L6.30000001,0.7 C6.30000001,0.313400675 6.61340069,0 7.00000001,0 C7.38659934,0 7.70000001,0.313400675 7.70000001,0.7 L7.70000001,8.2980625 Z" id="路径" fill="#3B82FF"></path>
        </g>
    </g>
</svg>