<?xml version="1.0" encoding="UTF-8"?>
<svg width="24px" height="24px" viewBox="0 0 24 24" version="1.1" xmlns="http://www.w3.org/2000/svg" xmlns:xlink="http://www.w3.org/1999/xlink">
    <title>首页 选中</title>
    <g id="首页-选中" stroke="none" stroke-width="1" fill="none" fill-rule="evenodd">
        <g id="icon_home" fill="#248AFF" fill-rule="nonzero">
            <path d="M13.3586391,0.499110156 C12.6248514,-0.166370052 11.50569,-0.166370052 10.7719023,0.499110156 L0.312070764,10.429072 C-0.0777232079,10.7871531 -0.106194948,11.3923504 0.248260359,11.7854303 C0.602715666,12.1785103 1.20774317,12.2126956 1.60423825,11.8620458 L1.77056278,11.7041605 L1.77056278,22.0681568 C1.76992526,22.5802925 1.97296615,23.0716707 2.3349514,23.4340308 C2.69693665,23.7963908 3.1881646,24 3.7004077,24 L9.31641256,24 L9.31641256,18.1912634 C9.31593423,17.8305419 9.45896619,17.4844396 9.71397565,17.2292582 C9.96898511,16.9740768 10.3150333,16.8307691 10.6758304,16.8309288 L13.318409,16.8309288 C13.6792061,16.8307691 14.0252543,16.9740768 14.2802637,17.2292582 C14.5352732,17.4844396 14.6783051,17.8305419 14.6778268,18.1912634 L14.6778268,24 L20.4271315,24 C20.9394786,24 21.4308609,23.7966205 21.7929761,23.4342432 C22.1550912,23.0718658 22.3582145,22.5803965 22.3575768,22.0681568 L22.3575768,11.8308289 C22.7862978,12.2186383 23.3945533,12.1892225 23.7512203,11.7918079 C23.9227658,11.6018793 24.0118042,11.3515882 23.9987414,11.0960146 C23.9856785,10.840441 23.8715848,10.6005281 23.6815682,10.429072 L13.3586391,0.49971048 L13.3586391,0.499110156 Z" id="路径"></path>
        </g>
    </g>
</svg>