<?xml version="1.0" encoding="UTF-8"?>
<svg width="36px" height="36px" viewBox="0 0 36 36" version="1.1" xmlns="http://www.w3.org/2000/svg" xmlns:xlink="http://www.w3.org/1999/xlink">
    <title>从业资格</title>
    <defs>
        <linearGradient x1="50%" y1="0%" x2="50%" y2="100%" id="linearGradient-1">
            <stop stop-color="#FAD961" offset="0%"></stop>
            <stop stop-color="#F76B1C" offset="100%"></stop>
        </linearGradient>
        <path d="M10.983564,19.0010844 C11.5758447,20.0962846 12.3841085,21.0387363 13.4061774,21.7642371 C14.4848408,22.5298186 15.7060478,22.9859378 16.9989709,23.1559651 L12.9619275,29 L11.6681941,24.4273587 L7,24.7682661 L10.983564,19.0010844 Z M25.015968,18.9995017 L29,24.7675964 L24.318117,24.4359625 L23.0373722,29 L19.0001142,23.1550058 C20.293093,22.9849248 21.5143523,22.5287434 22.5930704,21.7630922 C23.6152592,21.0374764 24.4236178,20.0948753 25.015968,18.9995017 Z M18,7 C21.8659932,7 25,10.1340068 25,14 C25,17.8659932 21.8659932,21 18,21 C14.1340068,21 11,17.8659932 11,14 C11,10.1340068 14.1340068,7 18,7 Z M17.4361894,11.0585176 L17.3799062,11.1465142 L16.987674,11.8717267 C16.8641846,12.1000508 16.6577091,12.2698646 16.413662,12.3481725 L16.2887178,12.3795482 L15.4777932,12.5284802 C15.3429779,12.5532399 15.2183046,12.6167642 15.1190311,12.7112786 C14.8652424,12.9529009 14.830987,13.3385121 15.0223879,13.618787 L15.0945542,13.7079686 L15.6630659,14.3051066 C15.8420547,14.493108 15.9397527,14.7419533 15.9388133,14.9982543 L15.9300434,15.126779 L15.8210967,15.9440366 C15.8029844,16.0799047 15.8248734,16.2181061 15.8840848,16.3417274 C16.0369852,16.6609525 16.3988246,16.8125482 16.7271724,16.7111088 L16.8244295,16.6730005 L17.5680213,16.3168395 C17.8021318,16.2047067 18.0689881,16.1886878 18.3124545,16.2687826 L18.4319787,16.3168395 L19.1755705,16.6730005 C19.2991918,16.7322119 19.4373932,16.7541008 19.5732613,16.7359885 C19.927035,16.6888278 20.1843618,16.3869613 20.1851647,16.0397096 L20.1789033,15.9440366 L20.0699566,15.126779 C20.0356561,14.8694757 20.1028842,14.6107301 20.2542942,14.4039305 L20.3369341,14.3051066 L20.9054458,13.7079686 C20.9999602,13.6086951 21.0634844,13.4840218 21.0882442,13.3492065 C21.1527138,12.9981743 20.94514,12.6601601 20.6151321,12.5520898 L20.5222068,12.5284802 L19.7112822,12.3795482 C19.4559728,12.3326588 19.2306658,12.1887642 19.0807759,11.9808601 L19.012326,11.8717267 L18.6200938,11.1465142 C18.5548856,11.0259484 18.4559443,10.9270071 18.3353786,10.861799 C18.0240437,10.6934131 17.6422038,10.7834535 17.4361894,11.0585176 Z" id="path-2"></path>
        <filter x="-31.8%" y="-22.7%" width="163.6%" height="163.6%" filterUnits="objectBoundingBox" id="filter-3">
            <feOffset dx="0" dy="2" in="SourceAlpha" result="shadowOffsetOuter1"></feOffset>
            <feGaussianBlur stdDeviation="2" in="shadowOffsetOuter1" result="shadowBlurOuter1"></feGaussianBlur>
            <feColorMatrix values="0 0 0 0 0   0 0 0 0 0   0 0 0 0 0  0 0 0 0 0" type="matrix" in="shadowBlurOuter1"></feColorMatrix>
        </filter>
    </defs>
    <g id="从业资格" stroke="none" stroke-width="1" fill="none" fill-rule="evenodd">
        <g id="编组-28">
            <circle id="椭圆形" fill-opacity="0.106397509" fill="#FCB303" opacity="0.822474888" cx="18" cy="18" r="18"></circle>
            <g id="形状结合">
                <use fill="black" fill-opacity="1" filter="url(#filter-3)" xlink:href="#path-2"></use>
                <use fill="url(#linearGradient-1)" fill-rule="evenodd" xlink:href="#path-2"></use>
            </g>
        </g>
    </g>
</svg>