<?xml version="1.0" encoding="UTF-8"?>
<svg width="36px" height="36px" viewBox="0 0 36 36" version="1.1" xmlns="http://www.w3.org/2000/svg" xmlns:xlink="http://www.w3.org/1999/xlink">
    <title>网约车驾驶证</title>
    <defs>
        <linearGradient x1="15.4822917%" y1="18.9173165%" x2="84.1728678%" y2="90.3288805%" id="linearGradient-1">
            <stop stop-color="#FE5AB5" offset="0%"></stop>
            <stop stop-color="#C406FE" offset="100%"></stop>
        </linearGradient>
    </defs>
    <g id="网约车驾驶证" stroke="none" stroke-width="1" fill="none" fill-rule="evenodd">
        <g id="编组-6">
            <circle id="椭圆形备份" fill="#E23AE2" opacity="0.128115699" cx="18" cy="18" r="18"></circle>
            <path d="M16.9070235,9 C16.9882426,9 17.0810644,9 17.1700186,9.01158997 C18.4579208,9.04635989 19.7535582,9.37474245 20.9138304,9.9581044 C22.0741027,10.5414663 23.106745,11.3875343 23.9034653,12.4035886 C23.9305384,12.4344952 23.9692141,12.4731284 24.0001547,12.5194883 C24.0117574,12.5349416 24.0233601,12.5503949 24.0388304,12.5697115 C24.0504332,12.5813015 24.0581683,12.5928915 24.069771,12.6083448 C24.1084468,12.658568 24.1471225,12.7165179 24.1819307,12.7667411 L24.2090037,12.8053743 C25.2648515,14.2966174 25.8179146,16.0621566 25.8103379,17.9049622 C25.8103379,18.7587569 25.6902847,19.6048249 25.450495,20.4238496 C25.4156869,20.5397493 25.342203,20.6324691 25.2377785,20.6865556 C25.1372215,20.7406422 25.0173267,20.7522321 24.9051671,20.7213255 C24.7930074,20.6865556 24.7001856,20.6131525 24.642172,20.5088427 C24.588026,20.4083963 24.5764233,20.2886332 24.6073639,20.1765968 C24.7814047,19.5739183 24.8858292,18.9557864 24.9206374,18.3337912 L21.8420483,18.3337912 C21.8343131,18.7162603 21.8149752,19.0871394 21.7840347,19.4348386 L21.7840347,19.4387019 C21.7569616,19.6743647 21.5365099,19.8520776 21.3044554,19.8250343 C21.0646658,19.7941277 20.890625,19.5816449 20.917698,19.3459821 C20.9525062,18.9944196 20.9718441,18.6583104 20.9757116,18.3337912 L17.3363243,18.3337912 L17.3363243,20.3736264 C17.9280631,20.3890797 18.519802,20.4470295 19.092203,20.5436126 C19.0999381,20.5436126 19.1038057,20.5436126 19.1076733,20.547476 L19.1115408,20.547476 L19.1347463,20.5513393 C19.2469059,20.5783826 19.3435953,20.6479224 19.4054765,20.7445055 C19.4673577,20.8410886 19.4866955,20.9608516 19.4596225,21.072888 C19.4325495,21.1849245 19.3629332,21.2815076 19.2662438,21.3433207 C19.1695545,21.4051339 19.0573948,21.4244505 18.9452351,21.4012706 C18.4076423,21.3162775 17.8661819,21.2621909 17.3285891,21.2428743 L17.3285891,25.8711367 C17.8247425,25.8904533 19.328125,25.5543441 19.3203899,25.577524 C19.5021658,25.589114 19.664604,25.7088771 19.7148824,25.8904533 C19.7806312,26.1183894 19.6491337,26.3617788 19.4170792,26.4313187 C18.6126238,26.6785714 17.7617574,26.7983345 16.8954208,26.7983345 C16.7059097,26.7983345 16.539604,26.7944712 16.3810334,26.7828812 L16.3539604,26.7828812 C16.1915223,26.7712912 16.0329517,26.7519746 15.8743812,26.7365213 L15.8511757,26.732658 C15.7235458,26.721068 15.5997834,26.7017514 15.4798886,26.6824348 C15.4528156,26.6785714 15.421875,26.6747081 15.394802,26.6669815 C15.3793317,26.6631181 15.367729,26.6631181 15.3599938,26.6631181 C15.3290532,26.6592548 15.294245,26.6515282 15.2555693,26.6438015 C15.1086015,26.6206216 14.9577661,26.5858516 14.822401,26.5510817 C14.6174196,26.5008585 14.4627166,26.4622253 14.3234839,26.4158654 C13.9986077,26.315419 13.6853342,26.1995192 13.3604579,26.0604396 C13.2096225,25.994763 13.051052,25.9213599 12.8886139,25.8363668 C12.5792079,25.6779705 12.3084777,25.5195742 12.0570854,25.3573146 C11.7631498,25.1680117 11.488552,24.9671188 11.2410272,24.7584993 C11.1984839,24.7198661 11.1559406,24.6850962 11.1172649,24.6503262 C11.0669864,24.6078297 11.0167079,24.5653331 10.970297,24.5228365 C10.9509592,24.5073832 10.9238861,24.4880666 10.9006807,24.45716 C10.8155941,24.3798935 10.7266399,24.2910371 10.6531559,24.2176339 C10.3244121,23.9008413 10.0188738,23.5531422 9.74814356,23.182263 L9.74427599,23.1783997 C9.72880569,23.1590831 9.7133354,23.1359032 9.6978651,23.1165865 C9.6669245,23.0779533 9.63598391,23.0315934 9.60504332,22.9852335 C8.55306312,21.4939904 8,19.7323146 8,17.8972356 C8,16.0544299 8.55693069,14.2966174 9.60891089,12.8053743 C9.62051361,12.789921 9.63211634,12.7744677 9.64371906,12.7551511 C9.67465965,12.7087912 9.7133354,12.6547047 9.75201114,12.6006181 L9.75587871,12.5967548 C9.77521658,12.5735749 9.79842203,12.5426683 9.81389233,12.5194883 C9.84096535,12.4808551 9.87190594,12.4422218 9.91058168,12.4035886 C10.707302,11.3875343 11.7399443,10.5453297 12.9002166,9.9581044 C14.0604889,9.37474245 15.3522587,9.04635989 16.6440285,9.01158997 C16.7368502,9 16.8258045,9 16.9070235,9 Z M21.0375928,24.0128777 C21.5094369,24.0244677 21.8845916,24.4108001 21.8729889,24.8821257 C21.8729889,25.3650412 21.4823639,25.7513736 21.0027847,25.7513736 C20.5193379,25.7513736 20.1325804,25.3611779 20.1325804,24.8821257 C20.1325804,24.3992102 20.5232054,24.0128777 21.0027847,24.0128777 L21.0375928,24.0128777 Z M25.7560334,24.0128777 C26.2356126,24.0206044 26.6107673,24.4069368 26.6068998,24.8821257 C26.6068998,25.3650412 26.2162748,25.7513736 25.7366955,25.7513736 C25.2532488,25.7513736 24.8664913,25.3611779 24.8664913,24.8821257 C24.8664913,24.3992102 25.2571163,24.0128777 25.7366955,24.0128777 L25.7560334,24.0128777 Z M16.5125309,21.1037946 C15.4876238,21.1385646 14.4975248,21.3008242 13.5615718,21.5905735 C14.1687809,23.7463084 15.2787748,25.2027816 16.5125309,25.4770776 L16.5125309,21.1037946 Z M12.7687191,21.8687328 C12.142172,22.1198489 11.5736386,22.4211882 11.0747215,22.7727507 C11.2216894,22.9543269 11.3841275,23.1281765 11.5543007,23.2981628 L11.5581683,23.3020261 C11.7283416,23.479739 11.9139851,23.6381353 12.0996287,23.7965316 L12.2814047,23.9394746 C12.3394183,23.9896978 12.4129022,24.039921 12.5018564,24.1017342 L12.5134592,24.1094609 C12.6062809,24.182864 12.7107054,24.2562672 12.8383354,24.3335337 C12.8538057,24.3412603 12.8654084,24.3528503 12.8731436,24.3567136 C13.0085087,24.4455701 13.1168007,24.5073832 13.2212252,24.5653331 L13.2250928,24.5691964 C13.3333849,24.6310096 13.4532797,24.6928228 13.6002475,24.7623626 L13.6118502,24.766226 C13.7124072,24.8203125 13.8245668,24.874399 13.9483292,24.9246223 C13.9754022,24.9246223 13.9908725,24.9323489 14.0024752,24.9400755 C14.1533106,25.0057521 14.304146,25.0637019 14.4627166,25.1177885 C13.7510829,24.3335337 13.1632116,23.2131696 12.7687191,21.8687328 Z M24.0272277,20.6595124 C24.7156559,20.6595124 25.4466275,22.2434753 25.9223391,22.2434753 L26.7809406,22.2434753 C27.0555384,22.2434753 27.3262686,22.3555117 27.5235149,22.5525412 C27.7168936,22.7495707 27.8251856,23.0200034 27.8174505,23.2942995 L27.8174505,24.4996566 C27.8174505,24.6928228 27.6627475,24.8512191 27.4655012,24.8512191 L26.9201733,24.8512191 C26.9201733,24.1790007 26.3748453,23.6304087 25.7018874,23.6304087 C25.0405322,23.645862 24.5106745,24.182864 24.4990718,24.8434924 L22.2249381,24.8434924 C22.2288057,24.7894059 22.2288057,24.731456 22.2249381,24.6773695 C22.1746597,23.9974245 21.5906559,23.4951923 20.917698,23.5376889 C20.237005,23.5879121 19.7342203,24.171274 19.7767636,24.8434924 L19.4248144,24.8434924 C19.2391708,24.8434924 19.0806002,24.6928228 19.0767327,24.4996566 L19.0767327,22.8191106 C19.0844678,22.7070742 19.1308787,22.6027644 19.2159653,22.5293613 C19.4673577,22.3555117 19.7032797,22.1584821 19.9237314,21.942136 C20.1944616,21.6214801 20.4845297,21.3162775 20.7939356,21.0265282 C20.9718441,20.8024554 21.2387067,20.6711023 21.5249072,20.6595124 L24.0272277,20.6595124 Z M24.181069,21.5595124 L22.9829827,21.5595124 L22.9829827,22.8403789 L24.9631807,22.8403789 L24.181069,21.5595124 Z M22.7130963,21.5595124 L21.5741117,21.5595124 L20.8949145,22.8195124 L22.7130963,22.8195124 L22.7130963,21.5595124 Z M12.2311262,18.3415179 L9.33431312,18.3415179 C9.40779703,19.6820913 9.8332302,20.9724416 10.5758045,22.0928056 C11.1636757,21.6794299 11.8288985,21.3317308 12.5560025,21.0458448 C12.3664913,20.1804602 12.2581993,19.272579 12.2311262,18.3415179 Z M16.5086634,18.3453812 L13.078125,18.3453812 C13.1013304,19.1875859 13.1941522,20.0027473 13.3565903,20.7715488 C14.3698948,20.4663462 15.4296101,20.2963599 16.5086634,20.26159 L16.5086634,18.3453812 Z M10.5719369,13.7441621 C9.82936262,14.8683894 9.40392946,16.1548764 9.33431312,17.4993132 L12.2349938,17.4993132 C12.2581993,16.5721154 12.3703589,15.6642342 12.55987,14.7949863 C12.142172,14.6327266 11.7360767,14.4434238 11.3454517,14.2270776 C11.1984839,14.1459478 11.0592512,14.0609547 10.9393564,13.9836882 L10.9200186,13.9720982 C10.8774752,13.9450549 10.8349319,13.9180117 10.7846535,13.8832418 C10.7150371,13.8407452 10.6415532,13.7943853 10.5719369,13.7441621 Z M13.3565903,15.0808723 C13.1980198,15.8303571 13.105198,16.6455185 13.0819926,17.4993132 L16.5125309,17.4993132 L16.5125309,15.5869677 C16.4197092,15.5831044 16.3384901,15.5792411 16.2611386,15.5715144 C16.2147277,15.5753777 16.176052,15.5715144 16.1412438,15.5676511 L16.1296411,15.5676511 L16.0769454,15.5637878 L16.021349,15.5599245 C15.9130569,15.5521978 15.8008973,15.5444712 15.6887376,15.5290179 C15.630724,15.5251545 15.576578,15.5212912 15.5224319,15.5135646 C15.4914913,15.5097012 15.4566832,15.5058379 15.4257426,15.5019746 C15.3793317,15.5019746 15.3445235,15.4942479 15.3097153,15.4865213 L15.3019802,15.4865213 C15.1511448,15.471068 15.0157797,15.447888 14.9113552,15.4324348 C14.7759901,15.4092548 14.6328899,15.3860749 14.4897896,15.3590316 L14.3428218,15.3315054 L14.2074567,15.3010817 C14.1455755,15.2894918 14.0875619,15.2740385 14.0295483,15.2585852 C13.805229,15.208362 13.5809097,15.1465488 13.3565903,15.0808723 Z M23.3001238,13.7441621 L23.1028775,13.8755151 C23.0680693,13.8986951 23.0293936,13.9257383 22.9907178,13.9489183 C22.9636448,13.9682349 22.9327042,13.9875515 22.9017636,14.0068681 C22.6813119,14.1459478 22.4685953,14.2695742 22.2404084,14.3777473 C22.0973082,14.4550137 21.9426052,14.5284169 21.7414913,14.6172734 C21.6873453,14.6404533 21.6331993,14.6636332 21.5751856,14.6906765 C21.544245,14.7022665 21.5133045,14.7177198 21.4823639,14.7293098 L21.4282178,14.7524897 C21.3895421,14.7640797 21.3508663,14.779533 21.3121906,14.7949863 C21.5017017,15.6603709 21.6099938,16.5682521 21.6370668,17.4993132 L24.5377475,17.4954499 C24.4642636,16.151013 24.0388304,14.8606628 23.3001238,13.7441621 Z M20.5193379,15.0731456 C20.2872834,15.1426854 20.0513614,15.2044986 19.8038366,15.2624485 C19.6104579,15.3088084 19.4054765,15.3474416 19.2120978,15.3860749 L19.2082302,15.3860749 C19.1424814,15.3976648 19.0728651,15.4092548 19.0109839,15.4169815 C18.964573,15.4247081 18.9142946,15.4324348 18.8640161,15.4401614 C18.755724,15.4556147 18.6474319,15.4749313 18.5352723,15.4865213 C18.4656559,15.4981113 18.392172,15.5058379 18.3225557,15.5135646 L18.2993502,15.5174279 C18.1678527,15.5328812 18.0324876,15.5483345 17.8971225,15.5560611 L17.8893874,15.5560611 C17.8352413,15.5599245 17.7849629,15.5637878 17.7346844,15.5637878 C17.610922,15.5753777 17.4871597,15.5792411 17.3633973,15.5831044 L17.3633973,17.4993132 L20.7978032,17.4993132 C20.7745978,16.6609718 20.681776,15.8458104 20.5193379,15.0731456 Z M16.5202661,10.3676168 C15.2826423,10.6380495 14.1726485,12.0945227 13.5615718,14.2541209 C13.7278775,14.3043441 13.8825804,14.350704 14.0334158,14.3893372 C14.1726485,14.4279705 14.3118812,14.4550137 14.458849,14.4859203 L14.5478032,14.505237 C14.6522277,14.5284169 14.768255,14.5477335 14.8804146,14.5709135 L14.9268255,14.5786401 C15.004177,14.5940934 15.0892636,14.6056834 15.1704827,14.6172734 C15.2168936,14.625 15.267172,14.6288633 15.3135829,14.63659 C15.5649752,14.6713599 15.8241027,14.6984032 16.0870978,14.7177198 L16.0948329,14.7177198 C16.2340656,14.7331731 16.3655631,14.7408997 16.5086634,14.7408997 L16.5202661,14.7408997 L16.5202661,10.3676168 Z M17.3595297,10.3637534 L17.3633973,14.7370364 L17.375,14.7370364 C17.5142327,14.7370364 17.6495978,14.7293098 17.7888304,14.7138565 L17.792698,14.7138565 C17.8236386,14.7099931 17.8584468,14.7099931 17.8893874,14.7061298 C17.9938119,14.6984032 18.0905012,14.6906765 18.1871906,14.6752232 L18.2065285,14.6752232 C18.2452042,14.6713599 18.2877475,14.6674966 18.3302908,14.6636332 C18.3534963,14.6597699 18.3767017,14.6559066 18.3960396,14.6559066 L18.4037748,14.6559066 C18.4965965,14.6481799 18.5894183,14.63659 18.6783725,14.6211367 C18.7093131,14.6172734 18.7479889,14.6095467 18.782797,14.6056834 C18.8369431,14.5979567 18.8949567,14.5902301 18.9491027,14.5786401 L18.9607054,14.5786401 C19.0341894,14.5670501 19.1038057,14.5554602 19.1695545,14.5400069 L19.1772896,14.5361435 C19.3977413,14.493647 19.6027228,14.4472871 19.8038366,14.3970639 L19.8077042,14.3970639 C19.9043936,14.3738839 20.0010829,14.350704 20.0977723,14.3197974 L20.1480507,14.3043441 C20.2021968,14.2888908 20.2602104,14.2734375 20.3143564,14.2541209 C19.6994121,12.0945227 18.5894183,10.6380495 17.3595297,10.3637534 Z M19.4248144,10.7384959 C20.1287129,11.5188874 20.7127166,12.635388 21.1072092,13.9759615 C21.1961634,13.9411916 21.2735149,13.910285 21.3431312,13.8755151 L21.3547339,13.8716518 C21.3972772,13.8561985 21.435953,13.8368819 21.4823639,13.8137019 L21.490099,13.8098386 C21.6370668,13.7480254 21.7801671,13.6746223 21.9193998,13.6012191 C22.0431621,13.5355426 22.1514542,13.4775927 22.2597463,13.4119162 L22.271349,13.4041896 C22.3177599,13.3810096 22.3757735,13.3462397 22.4221844,13.3153331 L22.4299196,13.3114698 C22.5420792,13.2457933 22.661974,13.1685268 22.7973391,13.0719437 C21.907797,11.9979396 20.735922,11.1905048 19.4248144,10.7384959 Z M14.4511139,10.7346326 C13.1361386,11.1905048 11.9642636,11.9979396 11.0747215,13.0719437 C11.2371597,13.1839801 11.3918626,13.2805632 11.542698,13.3694196 L11.5504332,13.373283 C11.6123144,13.4119162 11.6741955,13.4466861 11.7438119,13.4853194 C11.9642636,13.6128091 12.1885829,13.7248455 12.4167698,13.8214286 L12.4361077,13.8291552 C12.4902537,13.8600618 12.5482673,13.8832418 12.6256188,13.9141484 C12.6758973,13.933465 12.7223082,13.9527816 12.7687191,13.9682349 C13.1632116,12.635388 13.7433478,11.5188874 14.4511139,10.7346326 Z" id="形状结合" fill="url(#linearGradient-1)" fill-rule="nonzero" transform="translate(17.908919, 17.899167) rotate(-360.000000) translate(-17.908919, -17.899167) "></path>
        </g>
    </g>
</svg>