<?xml version="1.0" encoding="UTF-8"?>
<svg width="66px" height="66px" viewBox="0 0 66 66" version="1.1" xmlns="http://www.w3.org/2000/svg" xmlns:xlink="http://www.w3.org/1999/xlink">
    <title>saoyisao-2</title>
    <g id="页面-1" stroke="none" stroke-width="1" fill="none" fill-rule="evenodd">
        <g id="扫一扫" transform="translate(-147.000000, -397.000000)" fill="#3B82FF" fill-rule="nonzero">
            <g id="saoyisao-2" transform="translate(147.000000, 397.000000)">
                <path d="M10,12.1676829 L10,55.8323171 C10,55.9329268 10.0654596,56 10.163649,56 L56.836351,56 C56.9345404,56 57,55.9329268 57,55.8323171 L57,12.1676829 C57,12.0670732 56.9345404,12 56.836351,12 L10.163649,12 C10.0981894,12 10,12.0670732 10,12.1676829 Z M23.1805067,31.4615385 L43.8194933,31.4615385 C45.5394089,31.4615385 46.9285714,32.7847791 46.9285714,34.4230769 C46.9285714,36.0613748 45.5394089,37.3846154 43.8194933,37.3846154 L23.1805067,37.3846154 C21.4605911,37.3846154 20.0714286,36.0613748 20.0714286,34.4230769 C20.0714286,32.7847791 21.4936664,31.4615385 23.1805067,31.4615385 L23.1805067,31.4615385 Z" id="形状"></path>
                <path d="M63.6471088,42.3076923 C62.2745889,42.3076923 61.1961804,43.4172494 61.1961804,44.7552448 L61.1961804,57.9067599 C61.1961804,59.6363636 59.7256233,61.1048951 57.993634,61.1048951 L44.7586207,61.1048951 C43.4187798,61.1048951 42.3076923,62.2144522 42.3076923,63.5524476 C42.3076923,64.8904429 43.4187798,66 44.7586207,66 L59.5949072,66 C63.1569231,66 66,63.1934732 66,59.6363636 L66,44.7552448 C66,43.4172494 65.0196286,42.3076923 63.6471088,42.3076923 Z M59.5058275,0 L44.7552448,0 C43.4172494,0 42.3076923,1.10955711 42.3076923,2.44755245 C42.3076923,3.78554779 43.4172494,4.8951049 44.7552448,4.8951049 L57.9067599,4.8951049 C59.6363636,4.8951049 61.1048951,6.36363636 61.1048951,8.09324009 L61.1048951,21.2447552 C61.1048951,22.5827506 62.2144522,23.6923077 63.5524476,23.6923077 C64.8904429,23.6923077 66,22.5827506 66,21.2447552 L66,6.36363636 C65.8694639,2.83916084 63.0629371,0 59.5058275,0 Z M2.35289125,23.6923077 C3.6927321,23.6923077 4.80381963,22.5827506 4.80381963,21.2447552 L4.80381963,8.09324009 C4.80381963,6.36363636 6.27437666,4.8951049 8.00636605,4.8951049 L21.2413793,4.8951049 C22.6138992,4.8951049 23.6923077,3.78554779 23.6923077,2.44755245 C23.6923077,1.10955711 22.6138992,0 21.2413793,0 L6.40509284,0 C2.84307692,0 0,2.80652681 0,6.36363636 L0,21.1142191 C0,20.5594406 0.980371353,23.6923077 2.35289125,23.6923077 Z M21.3394164,61.1961804 L8.10440318,61.1961804 C6.37241379,61.1961804 4.90185676,59.7256233 4.90185676,57.993634 L4.90185676,44.7586207 C4.90185676,43.3861008 3.79076923,42.3076923 2.45092838,42.3076923 C1.07840849,42.3076923 0,43.4187798 0,44.7586207 L0,59.5949072 C0,63.1569231 2.84307692,66 6.40509284,66 L21.2413793,66 C22.5812202,66 23.6923077,64.8889125 23.6923077,63.5490716 C23.6923077,62.3072679 22.7119363,61.1961804 21.3394164,61.1961804 Z" id="形状"></path>
            </g>
        </g>
    </g>
</svg>