<?xml version="1.0" encoding="UTF-8"?>
<svg width="150px" height="66px" viewBox="0 0 150 66" version="1.1" xmlns="http://www.w3.org/2000/svg" xmlns:xlink="http://www.w3.org/1999/xlink">
    <title>亮证</title>
    <defs>
        <linearGradient x1="2.6734104%" y1="40.8156208%" x2="100%" y2="58.8588969%" id="linearGradient-1">
            <stop stop-color="#C0E6FB" offset="0%"></stop>
            <stop stop-color="#90BBFF" offset="100%"></stop>
        </linearGradient>
        <rect id="path-2" x="0" y="0" width="150" height="66" rx="8"></rect>
    </defs>
    <g id="亮证" stroke="none" stroke-width="1" fill="none" fill-rule="evenodd">
        <g id="椭圆形-+-椭圆形备份蒙版">
            <mask id="mask-3" fill="white">
                <use xlink:href="#path-2"></use>
            </mask>
            <use id="蒙版" fill="url(#linearGradient-1)" xlink:href="#path-2"></use>
            <ellipse id="椭圆形" fill="#FFFFFF" opacity="0.22093564" mask="url(#mask-3)" cx="133" cy="60" rx="28" ry="26"></ellipse>
            <ellipse id="椭圆形备份" fill="#FFFFFF" opacity="0.129092262" mask="url(#mask-3)" cx="158" cy="45" rx="28" ry="26"></ellipse>
            <g id="huaban" opacity="0.588309152" mask="url(#mask-3)" fill-rule="nonzero">
                <g transform="translate(8.000000, 7.000000)">
                    <path d="M21.9857094,53 C14.9333659,53 0,38.1610602 0,34.0596141 L0,8.47742023 C0,7.84113761 0.511740962,7.32532863 1.14300543,7.32532863 C9.58981555,7.15251489 16.1163766,4.80224803 20.5398076,0.337893092 C20.7541991,0.121556739 21.0451197,0 21.3484839,0 C21.6518481,0 21.9427687,0.121556739 22.1571602,0.337893092 C25.3232853,3.52918682 31.4326493,7.33684955 42.525517,7.33684955 L42.7884082,7.33684955 C43.1026413,7.31792108 43.4107086,7.43045717 43.6399473,7.64791428 C43.8701227,7.86605247 44.000454,8.17049108 44,8.48894114 L44,34.0596141 C43.9714189,38.1610602 29.0380529,53 21.9857094,53 Z M2.28601086,9.59494908 L2.28601086,34.0596141 C2.38316632,36.2140254 15.6363143,50.6958168 21.9857094,50.6958168 C28.3351046,50.6958168 41.5882525,36.2140254 41.685408,34.0538537 L41.685408,9.64103274 C31.164043,9.468219 24.8889432,5.97738146 21.3227663,2.72848316 C16.7164544,6.91633611 10.321339,9.22051931 2.28601086,9.59494908 Z" id="形状" fill="#D6E6F4"></path>
                    <path d="M21,6 L21,48 C19.1388791,47.3107221 16.0934085,45.3979759 12.4388438,42.089442 C8.06238985,38.1203501 5.50193867,34.6682166 5,33.553884 L5,11.5371991 C11.4067677,10.9742888 16.76454,9.12472648 21,6 Z" id="路径" fill="#6DA9FA"></path>
                    <path d="M31.0236917,19.2291213 L31.6467895,19.730953 C31.845933,19.890561 31.9714855,20.1206456 31.9957112,20.3703787 C32.019937,20.6201117 31.9408422,20.8689411 31.7758999,21.0618978 L21.0204453,33.6567816 C20.8561906,33.8502914 20.6194076,33.9722921 20.3624041,33.9958326 C20.1054005,34.019373 19.849327,33.9425158 19.6507527,33.7822395 L12.3532105,27.8802628 C12.154067,27.7206548 12.0285145,27.4905702 12.0042888,27.2408371 C11.980063,26.9911041 12.0591578,26.7422747 12.2241001,26.549318 L12.7405416,25.9438472 C12.9047962,25.7503374 13.1415793,25.6283366 13.3985828,25.6047962 C13.6555863,25.5812558 13.9116599,25.658113 14.1102341,25.8183892 L19.2914891,30.0185021 C19.4900634,30.1787783 19.7461369,30.2556355 20.0031404,30.2320951 C20.260144,30.2085547 20.496927,30.0865539 20.6611817,29.8930441 L29.6539991,19.3273058 C29.8222301,19.1377878 30.0610497,19.0209726 30.3179182,19.0025593 C30.5747867,18.9841461 30.8286618,19.0656431 31.0236917,19.2291213 Z" id="路径" fill="#D6E6F4"></path>
                </g>
            </g>
        </g>
    </g>
</svg>