<?xml version="1.0" encoding="UTF-8"?>
<svg width="20px" height="20px" viewBox="0 0 20 20" version="1.1" xmlns="http://www.w3.org/2000/svg" xmlns:xlink="http://www.w3.org/1999/xlink">
    <title>亮证</title>
    <g id="亮证" stroke="none" stroke-width="1" fill="none" fill-rule="evenodd" opacity="0.704171317">
        <path d="M6.11069736,0 L3.05596931,0 C1.37018495,0.00477272453 0.00477272453,1.37018495 0,3.05596931 L0,6.11069736 C0.00477272453,7.79648172 1.37018495,9.16189394 3.05596931,9.16666667 L6.11069736,9.16666667 C7.79648172,9.16189394 9.16189394,7.79648172 9.16666667,6.11069736 L9.16666667,3.05596931 C9.16189394,1.37018495 7.79648172,0.00477272453 6.11069736,0 Z M13.8893026,0 C12.2035183,0.00477272453 10.8381061,1.37018495 10.8333333,3.05596931 L10.8333333,6.11069736 C10.8381061,7.79648172 12.2035183,9.16189394 13.8893026,9.16666667 L16.9440307,9.16666667 C18.6298151,9.16189394 19.9952273,7.79648172 20,6.11069736 L20,3.05596931 C19.9952273,1.37018495 18.6298151,0.00477272453 16.9440307,0 L13.8893026,0 Z M3.05596931,10.8333333 C1.37018495,10.8381061 0.00477272453,12.2035183 0,13.8893026 L0,16.9440307 C0.00477272453,18.6298151 1.37018495,19.9952273 3.05596931,20 L6.11069736,20 C7.79648172,19.9952273 9.16189394,18.6298151 9.16666667,16.9440307 L9.16666667,13.8893026 C9.16189394,12.2035183 7.79648172,10.8381061 6.11069736,10.8333333 L3.05596931,10.8333333 Z M13.8893026,10.8333333 C12.2035183,10.8381061 10.8381061,12.2035183 10.8333333,13.8893026 L10.8333333,16.9440307 C10.8381061,18.6298151 12.2035183,19.9952273 13.8893026,20 L16.9440307,20 C18.6298151,19.9952273 19.9952273,18.6298151 20,16.9440307 L20,13.8893026 C19.9952273,12.2035183 18.6298151,10.8381061 16.9440307,10.8333333 L13.8893026,10.8333333 Z" id="形状" fill="#FFFFFF" fill-rule="nonzero"></path>
    </g>
</svg>