<?xml version="1.0" encoding="UTF-8"?>
<svg width="36px" height="36px" viewBox="0 0 36 36" version="1.1" xmlns="http://www.w3.org/2000/svg" xmlns:xlink="http://www.w3.org/1999/xlink">
    <title>出租车驾驶证</title>
    <defs>
        <linearGradient x1="12.3392365%" y1="15.2777778%" x2="100%" y2="84.7222222%" id="linearGradient-1">
            <stop stop-color="#00FFC0" offset="0%"></stop>
            <stop stop-color="#0C5CE8" offset="100%"></stop>
        </linearGradient>
    </defs>
    <g id="出租车驾驶证" stroke="none" stroke-width="1" fill="none" fill-rule="evenodd">
        <g id="编组-6">
            <g id="编组-29备份-3" fill="#06AED4" opacity="0.0893787202">
                <g id="编组-28">
                    <circle id="椭圆形" cx="18" cy="18" r="18"></circle>
                </g>
            </g>
            <g id="che" transform="translate(9.000000, 10.000000)" fill="url(#linearGradient-1)" fill-rule="nonzero">
                <path d="M17.5304752,4.40597309 L15.8445248,4.40597309 C15.7639463,4.40597309 15.6895661,4.43058746 15.6244835,4.46832949 L14.865186,2.04463406 C14.6188017,0.666229071 13.7014463,0 12.5764463,0 L5.43750001,0 C4.14514463,0 3.36105372,0.892681319 3.1518595,2.04299311 L2.38946281,4.47489334 C2.31906533,4.43064822 2.23888305,4.40687335 2.15702479,4.40597309 L0.466425614,4.40597309 C0.208325353,4.40777722 0,4.62985834 0,4.90318346 L0,5.33475548 C0,5.60879553 0.210743796,5.83196586 0.469524793,5.83196586 L1.10795454,5.94683295 C0.906508264,6.36363637 0.791838837,6.84115524 0.791838837,7.39744009 L0.55475206,10.2559895 C0.55475206,10.3396784 0.560950401,10.4250082 0.57024794,10.510338 C0.560500662,10.5633361 0.55531411,10.6171613 0.55475206,10.6711519 L0.55475206,14.1138825 C0.55475206,14.6028881 0.929752066,15 1.39152892,15 L2.67148761,15 C3.13362671,15 3.50826447,14.6032717 3.50826447,14.1138825 L3.50826447,13.0062356 L14.5056818,13.0062356 L14.5056818,14.1138825 C14.5056818,14.6028881 14.8791322,15 15.3424587,15 L16.6224174,15 C17.0845565,15 17.4591942,14.6032717 17.4591942,14.1138825 L17.4591942,10.6727929 C17.4586322,10.6188023 17.4534456,10.5649771 17.4436983,10.511979 C17.4545454,10.4266492 17.4591942,10.3413193 17.4591942,10.2576304 L17.223657,7.39744009 C17.223657,6.83951427 17.107438,6.36363635 16.9059917,5.94355103 L17.5304752,5.83196586 C17.7897866,5.83196586 18,5.60935719 18,5.33475548 L18,4.90318346 C18,4.62858175 17.7897866,4.40597309 17.5304752,4.40597309 L17.5304752,4.40597309 Z M3.71590908,3.897276 L4.27376032,2.32195601 L4.28150826,2.28585493 C4.33729339,1.96750901 4.46126034,1.91171644 4.64411157,1.66557269 L13.3822314,1.66557269 C13.5681818,1.91828026 13.6813017,1.98227764 13.732438,2.28257301 L14.2995868,3.89563504 L14.5072314,4.77190679 C14.4607438,5.41352148 13.732438,5.9205776 13.1280992,5.9205776 L4.88739669,5.9205776 C4.28305785,5.9205776 3.55475205,5.41352148 3.50826447,4.77190679 L3.71590908,3.89563504 L3.71590908,3.897276 Z M4.10640495,11.376764 C3.64269889,11.3939305 3.20710778,11.1417532 2.97044841,10.7191234 C2.73378905,10.2964936 2.73378905,9.77078572 2.97044841,9.3481559 C3.20710778,8.92552608 3.64269889,8.6733488 4.10640495,8.69051525 C4.78964138,8.71580875 5.33117703,9.30967412 5.33117703,10.0336396 C5.33117703,10.7576052 4.78964138,11.3514705 4.10640495,11.376764 L4.10640495,11.376764 Z M11.1926653,10.3856252 C11.1926653,10.6071546 11.0222107,10.786019 10.8145661,10.786019 L7.2551653,10.786019 C7.15502907,10.786019 7.05901662,10.7437834 6.98835516,10.6686475 C6.9176937,10.5935115 6.87820362,10.4916651 6.87861252,10.3856252 L6.87861252,9.2632097 C6.87861252,9.04332128 7.04752066,8.86445683 7.2551653,8.86445683 L10.8161157,8.86445683 C11.0253099,8.86445683 11.1942149,9.04168033 11.1942149,9.2632097 L11.1942149,10.3856252 L11.1926653,10.3856252 Z M13.9075413,11.376764 C13.4438353,11.3939305 13.0082442,11.1417532 12.7715848,10.7191234 C12.5349254,10.2964936 12.5349254,9.77078572 12.7715848,9.3481559 C13.0082442,8.92552608 13.4438353,8.6733488 13.9075413,8.69051525 C14.5907778,8.71580875 15.1323134,9.30967412 15.1323134,10.0336396 C15.1323134,10.7576052 14.5907778,11.3514705 13.9075413,11.376764 L13.9075413,11.376764 Z" id="形状"></path>
            </g>
        </g>
    </g>
</svg>