<?xml version="1.0" encoding="UTF-8"?>
<svg width="24px" height="24px" viewBox="0 0 24 24" version="1.1" xmlns="http://www.w3.org/2000/svg" xmlns:xlink="http://www.w3.org/1999/xlink">
    <title>我的 未选中</title>
    <g id="我的-未选中" stroke="none" stroke-width="1" fill="none" fill-rule="evenodd">
        <g id="wodedangxuan" fill-rule="nonzero" stroke="#248AFF">
            <path d="M12,0 C15.3081081,0 18,2.69189189 18,6 C18,9.30810811 15.3081081,12 12,12 C8.69189189,12 6,9.30810811 6,6 C6,2.69189189 8.69189189,0 12,0" id="路径"></path>
            <path d="M22.4915623,23.4782609 L1.45497144,23.4782609 C1.02010652,23.4782609 0.58524159,23.2686123 0.313451011,22.9541394 C0.0416604311,22.5872543 -0.0670558005,22.1679571 0.0416604313,21.7486599 C1.12882275,16.4026206 5.64054637,12.4192972 11.076358,12 C12.8973548,12 14.8678365,12.2227516 16.8383182,12.9958309 C17.4090785,13.2185825 17.5993319,13.3627159 17.9254806,13.5199524 C21.0782513,15.2495533 23.2525759,18.2370459 23.9592314,21.7486599 C24.0679476,22.1679571 23.9592314,22.5872543 23.6330827,22.9541394 C23.3612921,23.2686123 22.9264272,23.4782609 22.4915623,23.4782609 L22.4915623,23.4782609 Z" id="路径"></path>
        </g>
    </g>
</svg>