<?xml version="1.0" encoding="UTF-8"?>
<svg width="150px" height="66px" viewBox="0 0 150 66" version="1.1" xmlns="http://www.w3.org/2000/svg" xmlns:xlink="http://www.w3.org/1999/xlink">
    <title>待办事项</title>
    <defs>
        <linearGradient x1="1.23886921%" y1="40.9134669%" x2="113.779978%" y2="59.68%" id="linearGradient-1">
            <stop stop-color="#E3FFCE" offset="0%"></stop>
            <stop stop-color="#8DC89A" offset="100%"></stop>
        </linearGradient>
        <rect id="path-2" x="0" y="0" width="150" height="66" rx="8"></rect>
    </defs>
    <g id="待办事项" stroke="none" stroke-width="1" fill="none" fill-rule="evenodd">
        <g id="编组-3">
            <g id="椭圆形">
                <mask id="mask-3" fill="white">
                    <use xlink:href="#path-2"></use>
                </mask>
                <use id="蒙版" fill="url(#linearGradient-1)" xlink:href="#path-2"></use>
                <ellipse fill="#FFFFFF" opacity="0.267554874" mask="url(#mask-3)" cx="129" cy="65" rx="28" ry="26"></ellipse>
                <ellipse id="椭圆形备份" fill="#FFFFFF" opacity="0.219610305" mask="url(#mask-3)" cx="154" cy="50" rx="28" ry="26"></ellipse>
            </g>
            <g id="daibanshixiang" opacity="0.448149182" transform="translate(8.000000, 11.000000)" fill-rule="nonzero">
                <path d="M25.2033898,8.22857142 L17.0677966,8.22857142 C14.779661,8.22857142 13,6.42857142 13,4.11428571 C13,1.8 14.779661,0 17.0677966,0 L25.2033898,0 C27.4915254,0 29.2711864,1.8 29.2711864,4.11428571 C29.2711864,6.42857142 27.4915254,8.22857142 25.2033898,8.22857142 L25.2033898,8.22857142 Z M33.5932203,25.9714286 C28.5084746,25.9714286 24.1864407,30.3428572 24.1864407,35.4857143 C24.1864407,40.6285714 28.5084746,45 33.5932203,45 C38.677966,45 43,40.6285714 43,35.4857143 C43,30.0857143 38.6779661,25.9714286 33.5932203,25.9714286 L33.5932203,25.9714286 Z M37.661017,38.3142857 L32.3220339,38.3142857 C31.559322,38.3142857 31.0508475,37.8 31.0508475,37.0285714 L31.0508475,31.8857143 C31.0508475,31.1142857 31.559322,30.6 32.3220339,30.6 C33.0847458,30.6 33.5932204,31.1142857 33.5932203,31.8857143 L33.5932203,35.4857143 L37.661017,35.4857143 C38.4237288,35.4857143 38.9322034,36 38.9322034,36.7714286 C38.9322034,37.8 38.4237288,38.3142857 37.661017,38.3142857 Z" id="形状" fill="#7CAF6F"></path>
                <path d="M35.7818182,4 L33.5454546,4 C33.5454546,4.51006711 33.7939394,5.02013422 33.7939394,5.27516779 C33.7939394,8.33557048 31.3090909,10.6308725 28.5757576,10.6308725 L12.6727273,10.6308725 C9.69090911,10.6308725 7.45454549,8.08053691 7.45454549,5.27516779 C7.45454549,4.76510068 7.45454549,4.25503358 7.70303031,4 L5.21818181,4 C2.23636367,4 0,6.29530201 0,9.3557047 L0,36.6442953 C0,39.704698 2.23636363,42 5.21818181,42 L23.1090909,42 C21.8666667,39.9597315 21.1212121,37.6644295 21.1212121,35.114094 C21.1212121,28.4832215 26.3393939,22.8724833 33.0484848,22.8724832 C36.030303,22.8724832 39.0121212,24.147651 41,26.1879195 L41,9.3557047 C41,6.29530201 38.5151515,4 35.7818182,4 Z M17.8909091,31.0335571 L9.19393942,31.0335571 C7.95151518,31.0335571 7.20606062,30.0134229 7.20606062,28.9932886 C7.20606062,27.9731543 8.2,26.9530202 9.19393942,26.9530202 L17.6424242,26.9530202 C18.8848485,26.9530202 19.8787879,27.9731544 19.8787879,28.9932886 C19.8787879,30.0134228 18.8848485,31.0335571 17.8909091,31.0335571 L17.8909091,31.0335571 Z M23.8545454,22.1073826 L9.19393942,22.1073826 C7.95151518,22.1073826 7.20606062,21.0872484 7.20606062,20.0671141 C7.20606062,18.7919463 8.2,17.7718121 9.19393942,17.7718121 L23.6060606,17.7718121 C24.8484849,17.7718121 25.5939394,18.7919463 25.5939394,19.8120806 C25.8424242,21.0872484 24.8484848,22.1073826 23.8545454,22.1073826 Z" id="形状" fill="#94B88B" opacity="0.622558594"></path>
            </g>
        </g>
    </g>
</svg>